<svg xmlns="http://www.w3.org/2000/svg" width="24" height="24" viewBox="0 0 24 24" fill="none">
<style>
    .svg-stroke {
        stroke: #f8f8f8;
    }

    @media (prefers-color-scheme: light) {
        .svg-stroke {
            stroke: #101112;
        }
    }
    </style>
<path class="svg-stroke" d="M12 20v-9"/>
<path class="svg-stroke" d="M14 7a4 4 0 0 1 4 4v3a6 6 0 0 1-12 0v-3a4 4 0 0 1 4-4z"/>
<path class="svg-stroke" d="M14.12 3.88 16 2"/><path class="svg-stroke" d="M21 21a4 4 0 0 0-3.81-4"/>
<path class="svg-stroke" d="M21 5a4 4 0 0 1-3.55 3.97"/><path class="svg-stroke" d="M22 13h-4"/>
<path class="svg-stroke" d="M3 21a4 4 0 0 1 3.81-4"/><path class="svg-stroke" d="M3 5a4 4 0 0 0 3.55 3.97"/>
<path class="svg-stroke" d="M6 13H2"/><path class="svg-stroke" d="m8 2 1.88 1.88"/><path class="svg-stroke" d="M9 7.13V6a3 3 0 1 1 6 0v1.13"/>
</svg>
